<svg width="180" height="180" viewBox="0 0 180 180" fill="none" xmlns="http://www.w3.org/2000/svg">
  <rect width="180" height="180" rx="40" fill="#0052FF"/>
  <g transform="translate(30, 28) scale(1.875)">
    <path d="M10 54 L10 14 L14 14 L14 54 Z" fill="white"/>
    <path d="M14 14 L30 38 L26 38 L10 14 Z" fill="white"/>
    <path d="M30 38 L46 14 L50 14 L34 38 Z" fill="white"/>
    <path d="M46 54 L46 8 L50 8 L50 54 Z" fill="white"/>
    <path d="M50 8 C50 8 58 10 58 18 C58 24 52 24 50 22" stroke="white" stroke-width="3.5" fill="none" stroke-linecap="round"/>
    <ellipse cx="43" cy="54" rx="5.5" ry="4" transform="rotate(-20 43 54)" fill="white"/>
  </g>
</svg>
